<svg width="448" height="128" viewBox="0 0 448 128" fill="none" xmlns="http://www.w3.org/2000/svg">
<path d="M54.1985 62.5058C38.6636 78.3162 30.7063 90.2913 34.3321 94.3182C38.0004 98.3922 50.9308 91.6334 68.3754 77.7418C66.7006 77.1057 65.1175 76.2837 63.6511 75.301C52.8262 84.278 47.6913 86.9401 45.4399 84.4396C43.1974 81.949 46.3178 77.116 56.265 67.3472C55.4043 65.8305 54.7075 64.2087 54.1985 62.5058Z" fill="white"/>
<path d="M85.7307 34.056C87.3744 34.7393 88.9239 35.6037 90.3542 36.6245C101.443 27.4332 106.789 24.6371 109.058 27.1574C111.336 29.6871 107.932 34.7059 97.523 44.8291C98.3479 46.395 99.0011 48.0654 99.4577 49.8152C115.507 33.6143 123.795 21.3096 120.125 17.2335C116.434 13.1336 103.349 19.991 85.7307 34.056Z" fill="white"/>
<path d="M89.1169 94.539H79.7729V49.739H89.1169V72.587H91.1649L100.765 61.579H111.645L104.349 70.283C101.597 73.803 99.8689 75.211 97.8209 76.043V78.219C100.189 79.179 102.109 80.907 104.669 84.427L112.221 94.539H101.277L91.1649 81.547H89.1169V94.539Z" fill="white"/>
<path d="M130.352 80.203H111.664V72.459H130.352V80.203Z" fill="white"/>
<path d="M149.182 95.435C140.734 95.435 133.694 91.595 133.822 84.171H142.782C143.038 87.563 144.19 89.099 149.566 89.099C154.558 89.099 155.518 87.755 155.518 85.323C155.518 83.595 154.622 82.699 151.422 82.123L144.062 80.779C138.174 79.691 134.462 76.683 134.462 71.691C134.462 65.291 140.222 60.683 149.31 60.683C157.118 60.683 164.094 64.523 163.966 71.627H155.006C154.75 68.427 153.598 66.955 148.926 66.955C144.254 66.955 143.422 68.299 143.358 70.411C143.358 72.139 144.062 73.163 147.198 73.739L154.494 75.019C160.574 76.107 164.478 79.115 164.478 84.235C164.478 90.635 158.654 95.435 149.182 95.435Z" fill="white"/>
<path d="M183.557 95.435C173.381 95.435 166.661 89.739 166.661 78.027C166.661 66.699 173.509 60.683 183.621 60.683C192.133 60.683 198.917 64.651 199.301 73.419H190.085C189.765 69.003 188.293 67.851 183.493 67.851C177.861 67.851 176.389 68.939 176.389 78.027C176.389 87.115 177.861 88.267 183.493 88.267C188.293 88.267 189.765 87.115 190.085 82.635H199.301C198.917 91.403 192.133 95.435 183.557 95.435Z" fill="white"/>
<path d="M212.377 95.243C205.849 95.243 201.241 91.403 201.241 84.747C201.241 79.307 204.569 75.531 212.377 74.955L223.193 74.187V71.627C223.193 68.043 221.593 67.275 217.433 67.275C212.697 67.275 211.353 68.491 211.225 71.947H202.073C202.009 65.099 208.281 60.683 217.817 60.683C224.729 60.683 232.217 62.987 232.217 72.587V94.539H223.513L223.385 91.659H221.337C219.865 93.963 216.153 95.243 212.377 95.243ZM216.601 88.715C221.977 88.715 223.193 87.115 223.193 82.699V79.883L214.873 80.587C211.353 80.907 210.585 81.739 210.585 84.683C210.585 87.947 212.121 88.715 216.601 88.715Z" fill="white"/>
<path d="M246.954 94.539H237.61V49.739H246.954V94.539Z" fill="white"/>
<path d="M283.605 80.907H260.053C259.861 86.539 261.909 88.523 267.541 88.523C271.765 88.523 273.941 87.499 274.325 83.915H283.349C282.645 91.339 276.053 95.435 267.605 95.435C257.621 95.435 250.901 89.547 250.901 78.219C250.901 67.019 258.133 60.683 267.797 60.683C278.101 60.683 283.861 67.595 283.861 77.067C283.861 78.347 283.797 79.563 283.605 80.907ZM267.541 67.595C261.909 67.595 260.053 69.451 260.117 74.763H274.645C274.965 69.515 272.981 67.595 267.541 67.595Z" fill="white"/>
<path d="M308.632 94.539H299.288V49.739H308.632V94.539Z" fill="white"/>
<path d="M323.715 95.243C317.187 95.243 312.579 91.403 312.579 84.747C312.579 79.307 315.907 75.531 323.715 74.955L334.531 74.187V71.627C334.531 68.043 332.931 67.275 328.771 67.275C324.035 67.275 322.691 68.491 322.563 71.947H313.411C313.347 65.099 319.619 60.683 329.155 60.683C336.067 60.683 343.555 62.987 343.555 72.587V94.539H334.851L334.723 91.659H332.675C331.203 93.963 327.491 95.243 323.715 95.243ZM327.939 88.715C333.315 88.715 334.531 87.115 334.531 82.699V79.883L326.211 80.587C322.691 80.907 321.923 81.739 321.923 84.683C321.923 87.947 323.459 88.715 327.939 88.715Z" fill="white"/>
<path d="M368.98 95.435C364.5 95.435 361.364 93.451 359.828 91.275H357.78L357.588 94.539H348.948V49.739H358.164V64.587H360.212C361.876 62.475 365.332 60.683 369.492 60.683C377.172 60.683 382.74 66.827 382.74 77.899C382.74 89.611 376.532 95.435 368.98 95.435ZM365.588 88.075C372.308 88.075 373.012 86.603 373.012 78.027C373.012 69.451 372.308 67.979 365.588 67.979C358.804 67.979 358.1 69.451 358.1 78.027C358.1 86.603 358.804 88.075 365.588 88.075Z" fill="white"/>
<path d="M400.027 95.435C391.579 95.435 384.539 91.595 384.667 84.171H393.627C393.883 87.563 395.035 89.099 400.411 89.099C405.403 89.099 406.363 87.755 406.363 85.323C406.363 83.595 405.467 82.699 402.267 82.123L394.907 80.779C389.019 79.691 385.307 76.683 385.307 71.691C385.307 65.291 391.067 60.683 400.155 60.683C407.963 60.683 414.939 64.523 414.811 71.627H405.851C405.595 68.427 404.443 66.955 399.771 66.955C395.099 66.955 394.267 68.299 394.203 70.411C394.203 72.139 394.907 73.163 398.043 73.739L405.339 75.019C411.419 76.107 415.323 79.115 415.323 84.235C415.323 90.635 409.499 95.435 400.027 95.435Z" fill="white"/>
</svg>
